<svg xmlns="http://www.w3.org/2000/svg" width="133.333" height="40" viewBox="0 0 133.333 40"><g transform="translate(-265.505 -250.991)"><g transform="translate(304.745 250.991)"><path d="M365.654,264.541h-.929l-5.739-9.62v12.873h-1.395V251.529h.93l6.669,11.177,6.669-11.177h.93v16.265h-1.394V254.922Z" transform="translate(-357.591 -251.297)" fill="#fff"/><path d="M402.95,265.076a6.64,6.64,0,0,1-.952-3.788v-9.76h1.394v9.829a5.313,5.313,0,0,0,.72,3.021,5.311,5.311,0,0,0,8.783,0,5.305,5.305,0,0,0,.721-3.021v-9.829h1.394v9.76a6.646,6.646,0,0,1-.953,3.788,6.7,6.7,0,0,1-11.107,0Z" transform="translate(-382.853 -251.297)" fill="#fff"/><path d="M438.585,264.073a5.247,5.247,0,0,0,4.368,2.324,3.209,3.209,0,0,0,3.346-3.044c0-2.951-3.486-3.277-5.856-4.74a3.835,3.835,0,0,1-2.208-3.346,4.324,4.324,0,0,1,4.624-4.275,6.1,6.1,0,0,1,4.159,1.626l-.883,1.022a4.568,4.568,0,0,0-3.229-1.324,2.986,2.986,0,0,0-3.277,2.881c0,2.463,3.277,2.788,5.6,4.229a4.535,4.535,0,0,1,2.462,3.927,4.442,4.442,0,0,1-4.74,4.368,6.517,6.517,0,0,1-5.391-2.742Z" transform="translate(-403.084 -250.991)" fill="#fff"/><path d="M469.459,252.853v5.3h5.809v1.324h-5.809v6.994h7.668v1.324h-9.062V251.529h8.83v1.324Z" transform="translate(-420.435 -251.297)" fill="#fff"/><path d="M499.592,250.991a8.369,8.369,0,1,1-8.086,8.365A8.071,8.071,0,0,1,499.592,250.991Zm0,15.405a7.049,7.049,0,1,0-6.692-7.04A6.746,6.746,0,0,0,499.592,266.4Z" transform="translate(-433.771 -250.991)" fill="#fff"/></g><path d="M360.728,312.872v6.623h-3.137V303.228H363.7a5.335,5.335,0,0,1,4.229,1.465,5.08,5.08,0,0,1,0,6.739c-.883.929-2.138,1.44-4.229,1.44Zm2.835-2.788a2.456,2.456,0,0,0,1.975-.651,1.952,1.952,0,0,0,.534-1.371,2.01,2.01,0,0,0-.534-1.394,2.458,2.458,0,0,0-1.975-.651h-2.835v4.067Z" transform="translate(-52.611 -29.94)" fill="#fff"/><path d="M389.924,303.228h3.137v16.266h-3.137Z" transform="translate(-71.064 -29.94)" fill="#fff"/><path d="M401.51,319.494l6.971-16.266h2.207l6.971,16.266h-3.277l-1.534-3.6H406.32l-1.533,3.6Zm5.995-6.39h4.136l-2.068-4.81Z" transform="translate(-77.716 -29.94)" fill="#fff"/><path d="M442.369,311.056a5.472,5.472,0,0,0,5.553,5.576,5.7,5.7,0,0,0,3.625-1.254v-3.509h-4.182v-2.789h7.319v7.226a8.548,8.548,0,0,1-6.831,3.113,8.368,8.368,0,1,1-.046-16.729,8.457,8.457,0,0,1,5.949,2.323l-2.022,2.138a5.578,5.578,0,0,0-3.95-1.673A5.428,5.428,0,0,0,442.369,311.056Z" transform="translate(-99.268 -29.634)" fill="#fff"/><path d="M483.594,311.056a5.472,5.472,0,0,0,5.553,5.576,5.7,5.7,0,0,0,3.625-1.254v-3.509H488.59v-2.789h7.319v7.226a8.546,8.546,0,0,1-6.831,3.113,8.368,8.368,0,1,1-.046-16.729,8.456,8.456,0,0,1,5.948,2.323l-2.022,2.138a5.578,5.578,0,0,0-3.95-1.673A5.428,5.428,0,0,0,483.594,311.056Z" transform="translate(-122.824 -29.634)" fill="#fff"/><path d="M523.838,303.228h3.137v16.266h-3.137Z" transform="translate(-147.655 -29.94)" fill="#fff"/><path d="M545.522,302.691a8.365,8.365,0,1,1-8.481,8.365A8.215,8.215,0,0,1,545.522,302.691Zm0,13.941a5.582,5.582,0,1,0-5.345-5.576A5.4,5.4,0,0,0,545.522,316.632Z" transform="translate(-155.166 -29.634)" fill="#fff"/><g transform="translate(265.505 250.991)"><path d="M268.794,289.038a.362.362,0,0,0,.031.033,2.69,2.69,0,0,0,1.894.715h11.762l1.779,1.273L286,289.786h11.813c1.686,0,2.471-.765,2.471-2.406v-34.6Z" transform="translate(-267.376 -252.01)" fill="#0097c4"/><path d="M298.412,251.844v34.522c0,1.641-.785,2.406-2.471,2.406H284.127l-1.738,1.274-1.779-1.274H268.848a2.689,2.689,0,0,1-1.894-.715.4.4,0,0,1-.031-.033,2.6,2.6,0,0,1-.647-1.693V251.759h32.136Zm-32.906-.853v35.316a3.446,3.446,0,0,0,.221,1.216,2.93,2.93,0,0,0,.632,1.022,1.219,1.219,0,0,0,.091.091,3.454,3.454,0,0,0,2.4.9h11.514l2.035,1.451,1.984-1.451H295.94a2.885,2.885,0,0,0,3.021-1.794,4.021,4.021,0,0,0,.22-1.38V250.991Z" transform="translate(-265.505 -250.991)" fill="#dddddc"/><path d="M267.293,252.782v34.552a2.6,2.6,0,0,0,.647,1.692l31.489-36.244Z" transform="translate(-266.522 -252.01)" fill="#003f8f"/><path d="M328.4,327.73a2.174,2.174,0,0,0,2.114-2.166,2.116,2.116,0,1,0-4.23,0,2.172,2.172,0,0,0,2.116,2.166m0-3.679a1.467,1.467,0,0,1,1.409,1.513,1.421,1.421,0,0,1-1.409,1.461,1.453,1.453,0,0,1-1.41-1.461,1.5,1.5,0,0,1,1.41-1.513" transform="translate(-300.082 -292.406)" fill="#fff"/><path d="M324.142,327.693h-.654v-4.181h.654v4.181Z" transform="translate(-298.49 -292.469)" fill="#fff"/><path d="M317.557,327.573c-3.326.654-3.074-2.065-3.074-2.065a2.3,2.3,0,0,1,3.074-2.116v.706a1.65,1.65,0,0,0-2.318,1.41c0,.152.05,1.763,1.66,1.411v-1.561h.658v2.215Z" transform="translate(-293.364 -292.35)" fill="#fff"/><path d="M309.148,327.573c-3.326.654-3.073-2.065-3.073-2.065-.052-.553.5-2.668,3.073-2.116v.706a1.636,1.636,0,0,0-2.32,1.41c0,.152.053,1.763,1.663,1.411l.05-1.411v-.15h.606v2.215Z" transform="translate(-288.581 -292.35)" fill="#fff"/><path d="M301.594,327.693l-.754-2.065-.756-2.116h-.554l-.756,2.116-.757,2.065h.606l.3-.754h1.66l.3.754Zm-1.411-2.066.253.707h-1.258l.253-.707.4-1.054Z" transform="translate(-284 -292.47)" fill="#fff"/><path d="M296.157,327.693h-.7v-4.181h.7v4.181Z" transform="translate(-282.541 -292.469)" fill="#fff"/><path d="M288.949,326.938a1.724,1.724,0,0,0,1.761-1.31,1.087,1.087,0,0,0,.051-.4A1.67,1.67,0,0,0,289,323.563l-.906-.051v4.181h.656v-.754Zm-.2-2.771c.706-.049,1.359.3,1.359,1.058a.909.909,0,0,1-.1.4,1.1,1.1,0,0,1-.857.707h-.4v-2.168Z" transform="translate(-278.354 -292.47)" fill="#fff"/><path d="M289.821,263.932c0-5.838-6.548-6.294-6.548-6.294H271.744v.172c.35,0,.7.422.7,1.744v20.694c0,.757-.13,1.665-.7,1.665v.2h4.681v-.149c-.709,0-.705-.958-.705-1.715V270.126s4.533.1,6.3.1a15.462,15.462,0,0,0,2.968-.3c2.217-.555,4.787-2.016,4.837-5.893ZM279.749,258.7s5.287.1,5.389,5.235v.1c0,5.238-5.49,5.086-5.49,5.086h-3.929V258.7Z" transform="translate(-269.054 -254.772)" fill="#fff"/></g></g></svg>